<?xml version="1.0" encoding="utf-8"?>
<!-- Svg Vector Icons : http://www.onlinewebfonts.com/icon -->
<!DOCTYPE svg PUBLIC "-//W3C//DTD SVG 1.1//EN" "http://www.w3.org/Graphics/SVG/1.1/DTD/svg11.dtd">
<svg version="1.1" 
    xmlns="http://www.w3.org/2000/svg" 
    xmlns:xlink="http://www.w3.org/1999/xlink" fill="#ffffff" x="0px" y="0px" viewBox="0 0 1000 1000" enable-background="new 0 0 1000 1000" xml:space="preserve">
    <metadata> Svg Vector Icons : http://www.onlinewebfonts.com/icon </metadata>
    <g>
        <g transform="translate(0.000000,511.000000) scale(0.100000,-0.100000)">
            <path d="M9534.3,4422.7C9442,4381.6,635.8,968.3,287.1,837C114.7,773.4,53.2,636,137.3,502.6c32.8-53.3,196.9-133.3,1173.3-574.4c804.1-363.1,1159-533.3,1214.4-582.6l75.9-67.7v-1374.4v-1374.4l59.5-59.5c49.2-47.2,78-59.5,149.8-59.5c49.2,0,104.6,14.4,123.1,28.7c20.5,14.3,317.9,422.6,662.6,906.7c344.6,484.1,633.8,882.1,642.1,884.1c8.2,2,498.5-527.2,1091.3-1175.4c592.8-650.3,1107.7-1208.2,1144.6-1241c125.1-112.8,293.3-65.6,359,98.5c16.4,43.1,535.4,1444.1,1152.8,3113.9C8603,695.4,9284,2533.4,9497.4,3107.8c215.4,576.4,395.9,1079,400,1120c12.3,92.3-18.5,151.8-102.6,203.1C9710.7,4482.1,9673.8,4482.1,9534.3,4422.7z M7944.5,3325.2c-12.3-10.3-1191.8-814.4-2623.6-1786.7C2912.7-96.4,2715.8-227.6,2664.5-209.2C2562-170.2,929.1,576.5,912.7,592.9c-10.3,10.3,45.1,41,123.1,71.8c75.9,28.7,1663.6,644.1,3524.1,1364.1c1862.6,722.1,3388.7,1312.8,3394.9,1312.8C7958.9,3343.7,7954.8,3335.5,7944.5,3325.2z M9085.1,3247.3c-20.5-55.4-599-1618.5-1286.2-3477c-687.2-1860.5-1255.4-3380.5-1261.5-3380.5c-26.7,0-1993.9,2160-1995.9,2188.7c-2.1,22.6,4551.8,4763.1,4576.4,4765.2C9122,3343.7,9105.6,3300.6,9085.1,3247.3z M7427.6,2219.6c-336.4-346.7-1234.9-1275.9-2000-2065.7L4040.9-1282l-486.2-687.2c-268.7-377.4-496.4-695.4-504.6-705.6c-10.3-12.3-18.5,447.2-18.5,1058.5v1076.9l824.6,562.1c3152.8,2141.5,4166.2,2828.7,4174.4,2828.7C8036.9,2851.4,7766.1,2568.3,7427.6,2219.6z"/>
        </g>
    </g>
</svg>
